<?xml version="1.0" encoding="UTF-8" standalone="no"?>
<!-- Created with Inkscape (http://www.inkscape.org/) -->

<svg
   version="1.1"
   id="svg1"
   width="3360"
   height="3360"
   viewBox="0 0 3360 3360"
   xmlns="http://www.w3.org/2000/svg"
   xmlns:svg="http://www.w3.org/2000/svg">
  <defs
     id="defs1" />
  <path
     id="rect29"
     style="fill:#e77952;stroke:#000000;stroke-width:0"
     d="m 480,0 h 2400 c 265.92,0 480,214.08 480,480 v 2400 c 0,265.92 -214.08,480 -480,480 H 480 C 214.08,3360 0,3145.92 0,2880 V 480 C 0,214.08 214.08,0 480,0 Z" />
  <path
     style="font-size:3000px;line-height:0;font-family:'New Time Nerd';-inkscape-font-specification:'New Time Nerd';text-align:center;letter-spacing:3.71px;word-spacing:0px;white-space:pre;fill:#f0eee6;stroke:#000000;stroke-width:0"
     d="m 840.6445,600.41017 q 90.8203,0 360.3516,0 0,448.24223 0,1798.82813 -90.8203,0 -360.3516,0 0,-448.2422 0,-1798.82813 z m 360.3516,1798.82813 q 331.0547,0 1318.3594,0 0,90.8203 0,360.3516 -246.0938,0 -987.3047,0 -84.961,0 -331.0547,0 0,-90.8204 0,-360.3516 z"
     id="text1"
     aria-label="L" />
</svg>
